<svg width="833" height="601" viewBox="0 0 833 601" fill="none" xmlns="http://www.w3.org/2000/svg">
<path opacity="0.1" d="M483.776 105.803C430.397 103.948 379.517 86.7149 331.006 67.864C282.495 49.0132 234.414 28.1232 182.285 18.1343C148.768 11.7024 110.438 10.7978 83.4383 28.7671C57.4503 46.0541 49.056 75.8981 44.5407 103.588C41.1446 124.424 39.1744 146.349 48.458 165.859C54.9205 179.398 66.3889 190.782 74.3233 203.753C101.921 248.883 82.411 304.538 52.498 348.641C38.4691 369.34 22.1941 389.034 11.3696 411.043C0.545099 433.052 -4.4685 458.266 5.00675 480.712C14.3977 502.944 36.7673 519.671 61.0074 531.423C110.239 555.273 168.248 562.095 224.816 566.005C350.033 574.568 475.926 570.858 601.473 567.147C647.937 565.767 694.608 564.38 740.313 557.181C765.695 553.187 791.905 546.855 810.335 531.569C833.724 512.159 839.527 479.302 823.85 454.962C797.555 414.148 724.858 404.006 706.475 360.202C696.363 336.092 706.751 309.23 721.454 286.868C752.985 238.902 805.85 196.815 808.633 141.98C810.549 104.316 785.136 66.6068 745.84 48.7832C704.658 30.0857 647.546 32.4468 617.165 63.3487C585.88 95.1859 530.899 107.436 483.776 105.803Z" fill="#6C63FF"/>
<path d="M185.711 555.809C185.711 555.809 143.548 523.934 135.583 483.388C132.353 466.359 123.689 450.836 110.89 439.147C104.768 433.649 98.1552 428.722 91.135 424.428" stroke="#535461" stroke-width="2" stroke-miterlimit="10"/>
<path d="M85.9757 398.885C89.6708 403.883 91.342 425.064 91.342 425.064C91.342 425.064 71.5865 417.283 67.8838 412.293C66.1058 409.894 65.3537 406.886 65.7929 403.933C66.2321 400.979 67.8267 398.321 70.2258 396.543C72.6249 394.765 75.6321 394.013 78.5858 394.452C81.5395 394.891 84.1977 396.486 85.9757 398.885Z" fill="#6C63FF"/>
<path d="M121.408 415.505C121.792 421.707 111.695 440.397 111.695 440.397C111.695 440.397 99.33 423.117 98.9391 416.915C98.7904 413.959 99.8127 411.063 101.784 408.854C103.756 406.646 106.519 405.304 109.473 405.119C112.428 404.933 115.337 405.919 117.569 407.863C119.802 409.807 121.178 412.553 121.401 415.505H121.408Z" fill="#6C63FF"/>
<path d="M155.752 463.28C152.962 468.83 134.801 479.869 134.801 479.869C134.801 479.869 132.861 458.711 135.652 453.161C137.025 450.55 139.369 448.584 142.178 447.684C144.987 446.785 148.037 447.024 150.671 448.35C153.306 449.676 155.314 451.984 156.264 454.776C157.215 457.568 157.031 460.622 155.752 463.28Z" fill="#6C63FF"/>
<path d="M173.607 505.259C171.79 511.2 155.76 525.145 155.76 525.145C155.76 525.145 150.263 504.623 152.08 498.674C152.953 495.819 154.925 493.429 157.561 492.028C160.197 490.627 163.281 490.33 166.136 491.203C168.991 492.077 171.381 494.048 172.782 496.684C174.183 499.32 174.48 502.405 173.607 505.259Z" fill="#6C63FF"/>
<path d="M93.4195 455.422C99.5523 456.25 118.94 447.495 118.94 447.495C118.94 447.495 102.58 433.942 96.4169 433.114C93.4587 432.716 90.4637 433.51 88.0908 435.321C85.7179 437.132 84.1616 439.811 83.7641 442.769C83.3666 445.727 84.1606 448.723 85.9713 451.095C87.782 453.468 90.4612 455.025 93.4195 455.422Z" fill="#6C63FF"/>
<path d="M114.923 504.263C121.056 503.212 136.901 489.068 136.901 489.068C136.901 489.068 117.23 481.034 111.105 482.085C109.639 482.325 108.234 482.854 106.973 483.64C105.712 484.426 104.619 485.454 103.757 486.664C102.895 487.875 102.282 489.244 101.952 490.693C101.623 492.142 101.583 493.642 101.836 495.107C102.089 496.571 102.63 497.971 103.427 499.225C104.224 500.48 105.261 501.564 106.479 502.415C107.697 503.266 109.072 503.868 110.524 504.185C111.976 504.502 113.476 504.528 114.938 504.263H114.923Z" fill="#6C63FF"/>
<path d="M142.329 548.871C148.546 548.871 166.561 537.61 166.561 537.61C166.561 537.61 148.539 526.364 142.321 526.364C139.337 526.364 136.474 527.549 134.364 529.66C132.253 531.77 131.068 534.633 131.068 537.618C131.068 540.602 132.253 543.465 134.364 545.575C136.474 547.686 139.337 548.871 142.321 548.871H142.329Z" fill="#6C63FF"/>
<path d="M595.309 280.114C595.309 280.114 621.297 234.08 660.471 220.817C676.92 215.354 691.155 204.705 701.04 190.467C705.676 183.661 709.676 176.442 712.991 168.903" stroke="#535461" stroke-width="2" stroke-miterlimit="10"/>
<path d="M737.584 160.47C733.122 164.794 712.355 169.271 712.355 169.271C712.355 169.271 717.453 148.649 721.914 144.318C724.068 142.301 726.927 141.211 729.876 141.282C732.826 141.353 735.629 142.579 737.683 144.697C739.737 146.814 740.878 149.654 740.859 152.604C740.841 155.554 739.664 158.379 737.584 160.47Z" fill="#6C63FF"/>
<path d="M725.839 197.75C719.706 198.961 699.874 191.433 699.874 191.433C699.874 191.433 715.36 176.868 721.454 175.68C722.918 175.355 724.431 175.326 725.906 175.594C727.381 175.862 728.787 176.422 730.042 177.241C731.298 178.06 732.377 179.122 733.216 180.364C734.056 181.606 734.638 183.003 734.93 184.473C735.223 185.943 735.218 187.457 734.917 188.925C734.616 190.394 734.025 191.787 733.178 193.024C732.331 194.261 731.246 195.316 729.986 196.128C728.725 196.939 727.316 197.491 725.839 197.75Z" fill="#6C63FF"/>
<path d="M683.093 238.135C677.221 236.104 663.874 219.576 663.874 219.576C663.874 219.576 684.573 214.838 690.46 216.869C691.875 217.339 693.182 218.084 694.306 219.063C695.43 220.041 696.349 221.233 697.009 222.57C697.668 223.906 698.056 225.36 698.149 226.848C698.242 228.335 698.039 229.826 697.551 231.235C697.063 232.643 696.3 233.94 695.307 235.051C694.314 236.162 693.11 237.065 691.765 237.707C690.42 238.349 688.96 238.717 687.472 238.791C685.983 238.864 684.495 238.641 683.093 238.135Z" fill="#6C63FF"/>
<path d="M643.812 261.409C637.68 260.397 621.765 246.33 621.765 246.33C621.765 246.33 641.382 238.158 647.507 239.17C650.456 239.655 653.09 241.291 654.832 243.719C656.574 246.146 657.28 249.166 656.795 252.114C656.31 255.062 654.674 257.697 652.246 259.439C649.819 261.18 646.799 261.886 643.851 261.402L643.812 261.409Z" fill="#6C63FF"/>
<path d="M682.557 175.312C682.549 181.529 693.826 199.567 693.826 199.567C693.826 199.567 705.087 181.552 705.087 175.342C705.126 173.84 704.864 172.346 704.317 170.946C703.769 169.547 702.947 168.272 701.898 167.196C700.85 166.119 699.596 165.264 698.212 164.68C696.827 164.096 695.34 163.795 693.837 163.795C692.335 163.795 690.847 164.096 689.463 164.68C688.079 165.264 686.825 166.119 685.777 167.196C684.728 168.272 683.906 169.547 683.358 170.946C682.81 172.346 682.548 173.84 682.587 175.342L682.557 175.312Z" fill="#6C63FF"/>
<path d="M636.997 203.109C638.852 209.042 654.982 222.88 654.982 222.88C654.982 222.88 660.348 202.319 658.478 196.386C657.508 193.637 655.509 191.371 652.902 190.066C650.295 188.762 647.283 188.52 644.501 189.391C641.719 190.262 639.384 192.179 637.987 194.738C636.59 197.297 636.241 200.298 637.013 203.109H636.997Z" fill="#6C63FF"/>
<path d="M596.467 236.203C597.295 242.336 610.848 258.718 610.848 258.718C610.848 258.718 619.595 239.362 618.767 233.206C618.603 231.714 618.142 230.271 617.412 228.96C616.682 227.649 615.696 226.498 614.514 225.573C613.332 224.649 611.978 223.97 610.529 223.577C609.081 223.184 607.569 223.084 606.082 223.284C604.595 223.484 603.163 223.979 601.87 224.741C600.577 225.502 599.449 226.515 598.553 227.719C597.658 228.922 597.011 230.293 596.653 231.75C596.295 233.207 596.231 234.721 596.467 236.203Z" fill="#6C63FF"/>
<path opacity="0.25" d="M737.584 160.47C733.122 164.794 712.355 169.271 712.355 169.271C712.355 169.271 717.453 148.649 721.914 144.318C724.068 142.301 726.927 141.211 729.876 141.282C732.826 141.353 735.629 142.579 737.683 144.697C739.737 146.814 740.878 149.654 740.859 152.604C740.841 155.554 739.664 158.379 737.584 160.47Z" fill="black"/>
<path opacity="0.25" d="M725.839 197.75C719.706 198.961 699.874 191.433 699.874 191.433C699.874 191.433 715.36 176.868 721.454 175.68C722.918 175.355 724.431 175.326 725.906 175.594C727.381 175.862 728.787 176.422 730.042 177.241C731.298 178.06 732.377 179.122 733.216 180.364C734.056 181.606 734.638 183.003 734.93 184.473C735.223 185.943 735.218 187.457 734.917 188.925C734.616 190.394 734.025 191.787 733.178 193.024C732.331 194.261 731.246 195.316 729.986 196.128C728.725 196.939 727.316 197.491 725.839 197.75Z" fill="black"/>
<path opacity="0.25" d="M683.093 238.135C677.221 236.104 663.874 219.576 663.874 219.576C663.874 219.576 684.573 214.838 690.46 216.869C691.875 217.339 693.182 218.084 694.306 219.063C695.43 220.041 696.349 221.233 697.009 222.57C697.668 223.906 698.056 225.36 698.149 226.848C698.242 228.335 698.039 229.826 697.551 231.235C697.063 232.643 696.3 233.94 695.307 235.051C694.314 236.162 693.11 237.065 691.765 237.707C690.42 238.349 688.96 238.717 687.472 238.791C685.983 238.864 684.495 238.641 683.093 238.135Z" fill="black"/>
<path opacity="0.25" d="M643.812 261.409C637.68 260.397 621.765 246.33 621.765 246.33C621.765 246.33 641.382 238.158 647.507 239.17C650.456 239.655 653.09 241.291 654.832 243.719C656.574 246.146 657.28 249.166 656.795 252.114C656.31 255.062 654.674 257.697 652.246 259.439C649.819 261.18 646.799 261.886 643.851 261.402L643.812 261.409Z" fill="black"/>
<path opacity="0.25" d="M682.557 175.312C682.549 181.529 693.826 199.567 693.826 199.567C693.826 199.567 705.087 181.552 705.087 175.342C705.126 173.84 704.864 172.346 704.317 170.946C703.769 169.547 702.947 168.272 701.898 167.196C700.85 166.119 699.596 165.264 698.212 164.68C696.827 164.096 695.34 163.795 693.837 163.795C692.335 163.795 690.847 164.096 689.463 164.68C688.079 165.264 686.825 166.119 685.777 167.196C684.728 168.272 683.906 169.547 683.358 170.946C682.81 172.346 682.548 173.84 682.587 175.342L682.557 175.312Z" fill="black"/>
<path opacity="0.25" d="M636.997 203.109C638.852 209.042 654.982 222.88 654.982 222.88C654.982 222.88 660.348 202.319 658.478 196.386C657.508 193.637 655.509 191.371 652.902 190.066C650.295 188.762 647.283 188.52 644.501 189.391C641.719 190.262 639.384 192.179 637.987 194.738C636.59 197.297 636.241 200.298 637.013 203.109H636.997Z" fill="black"/>
<path opacity="0.25" d="M596.467 236.203C597.295 242.336 610.848 258.718 610.848 258.718C610.848 258.718 619.595 239.362 618.767 233.206C618.603 231.714 618.142 230.271 617.412 228.96C616.682 227.649 615.696 226.498 614.514 225.573C613.332 224.649 611.978 223.97 610.529 223.577C609.081 223.184 607.569 223.084 606.082 223.284C604.595 223.484 603.163 223.979 601.87 224.741C600.577 225.502 599.449 226.515 598.553 227.719C597.658 228.922 597.011 230.293 596.653 231.75C596.295 233.207 596.231 234.721 596.467 236.203Z" fill="black"/>
<path d="M596.804 279.202C596.804 279.202 601.91 226.582 632.313 198.601C645.137 186.94 653.836 171.436 657.105 154.414C658.593 146.322 659.335 138.11 659.321 129.883" stroke="#535461" stroke-width="2" stroke-miterlimit="10"/>
<path d="M678.379 112.128C676.079 117.893 658.876 130.404 658.876 130.404C658.876 130.404 655.181 109.483 657.504 103.718C658.622 100.95 660.794 98.7395 663.542 97.5728C666.29 96.4062 669.389 96.379 672.158 97.4972C674.926 98.6155 677.136 100.788 678.303 103.536C679.47 106.284 679.497 109.383 678.379 112.151V112.128Z" fill="#6C63FF"/>
<path d="M682.756 151.01C677.673 154.583 656.461 155.755 656.461 155.755C656.461 155.755 664.725 136.176 669.808 132.604C671.013 131.702 672.388 131.051 673.849 130.689C675.311 130.328 676.83 130.263 678.317 130.499C679.804 130.736 681.228 131.268 682.506 132.064C683.783 132.861 684.888 133.906 685.754 135.137C686.621 136.368 687.232 137.761 687.55 139.232C687.869 140.704 687.889 142.224 687.609 143.704C687.33 145.183 686.756 146.591 685.922 147.845C685.089 149.099 684.012 150.172 682.756 151.003V151.01Z" fill="#6C63FF"/>
<path d="M660.018 205.271C653.824 205.792 634.92 196.071 634.92 196.071C634.92 196.071 651.938 183.346 658.133 182.824C661.107 182.574 664.059 183.516 666.339 185.443C668.619 187.369 670.041 190.122 670.291 193.097C670.541 196.071 669.599 199.023 667.673 201.304C665.746 203.584 662.993 205.005 660.018 205.255V205.271Z" fill="#6C63FF"/>
<path d="M633.563 242.443C627.545 243.977 607.276 237.637 607.276 237.637C607.276 237.637 621.895 222.22 627.913 220.656C630.802 219.907 633.87 220.336 636.443 221.85C639.016 223.363 640.882 225.836 641.631 228.725C642.381 231.614 641.951 234.682 640.438 237.255C638.925 239.828 636.452 241.694 633.563 242.443Z" fill="#6C63FF"/>
<path d="M634.099 148.036C636.614 153.716 654.2 165.668 654.2 165.668C654.2 165.668 657.19 144.632 654.675 138.951C653.422 136.294 651.18 134.231 648.426 133.205C645.673 132.179 642.628 132.27 639.941 133.46C637.254 134.649 635.139 136.842 634.047 139.57C632.956 142.298 632.975 145.344 634.099 148.059V148.036Z" fill="#6C63FF"/>
<path d="M603.711 191.901C607.813 196.57 628.158 202.687 628.158 202.687C628.158 202.687 624.724 181.72 620.623 177.052C619.654 175.918 618.471 174.987 617.14 174.315C615.809 173.642 614.358 173.24 612.871 173.133C611.383 173.026 609.89 173.216 608.476 173.691C607.063 174.166 605.758 174.918 604.638 175.901C603.517 176.885 602.603 178.082 601.949 179.422C601.295 180.762 600.914 182.219 600.828 183.707C600.742 185.196 600.952 186.687 601.447 188.094C601.942 189.5 602.712 190.794 603.711 191.901Z" fill="#6C63FF"/>
<path d="M580.031 238.603C583.281 243.892 602.301 253.36 602.301 253.36C602.301 253.36 602.462 232.117 599.234 226.82C597.628 224.374 595.131 222.65 592.275 222.014C589.419 221.378 586.427 221.879 583.934 223.411C581.441 224.944 579.643 227.388 578.922 230.224C578.2 233.059 578.612 236.065 580.069 238.603H580.031Z" fill="#6C63FF"/>
<path d="M557.707 73.1306C558.98 68.462 560.513 63.7704 561.586 59.0404C560.298 63.7704 558.757 68.4773 557.707 73.1306Z" fill="url(#paint0_linear)"/>
<path d="M552.004 118.1C551.896 117.916 551.82 117.732 551.735 117.563C551.735 117.487 551.659 117.425 551.628 117.349C551.461 117.427 551.289 117.496 551.114 117.556C550.777 117.686 550.432 117.808 550.079 117.908C549.727 118.008 549.581 118.061 549.313 118.123C549.09 118.199 548.862 118.258 548.63 118.299L548.692 118.437C548.975 118.376 549.251 118.322 549.535 118.245L549.612 119.196C549.934 119.196 550.233 119.15 550.524 119.15C550.662 119.142 550.8 119.142 550.938 119.15C551.536 119.15 552.057 119.15 552.471 119.15C552.31 118.805 552.142 118.445 552.004 118.1ZM707.625 365.813C704.022 360.961 696.831 308.878 696.831 308.878C696.831 308.878 682.687 271.843 686.543 257.063C690.399 242.282 676.01 204.466 676.01 204.466C676.01 204.466 666.504 200.334 665.99 194.201C665.99 194.201 627.177 181.935 625.36 172.736C623.888 165.192 599.817 159.78 591.17 158.071C588.532 147.43 585.88 137.503 583.925 132.083C583.396 130.396 582.898 128.94 582.438 127.79C579.134 119.357 568.923 118.59 561.517 119.265C561.196 117.828 560.6 116.466 559.762 115.256C559.639 114.839 559.397 114.469 559.064 114.19C558.905 114.055 558.736 113.932 558.558 113.822C558.424 113.574 558.248 113.351 558.037 113.163C557.826 112.973 557.595 112.809 557.347 112.672C557.169 112.576 556.984 112.491 556.795 112.419C556.351 112.25 555.891 112.124 555.423 112.044C554.877 111.931 554.323 111.86 553.767 111.829C555.12 111.237 556.326 110.355 557.301 109.245C557.964 108.466 558.457 107.558 558.75 106.578C558.993 105.763 559.101 104.913 559.072 104.063C558.873 104.414 558.642 104.745 558.382 105.052C558.704 101.656 556.91 98.2063 555.883 94.8256C554.638 90.4244 554.407 85.7982 555.208 81.295C556.235 74.5029 558.78 67.6341 560.505 60.7193C560.51 60.6811 560.51 60.6425 560.505 60.6043C561.41 57.1702 561.97 53.6546 562.176 50.1094C562.475 42.957 560.643 35.8199 557.699 29.3037C555.085 23.5312 551.229 17.8506 545.326 15.5048C540.941 13.734 536.027 14.0176 531.305 13.7263C520.711 13.067 510.607 9.3413 500.534 5.95289C490.46 2.56449 480.096 -0.517268 469.494 0.073019C458.892 0.663306 447.983 5.77657 443.145 15.1598C441.612 18.0883 440.731 21.3464 438.898 24.0985C435.464 29.2884 429.316 31.8872 424.187 35.4673C419.059 39.0473 414.543 44.1299 412.688 50.1938C411.675 53.4607 411.532 56.9356 412.274 60.2746C412.441 61.0287 412.656 61.7713 412.918 62.4978C413.646 64.5234 414.781 66.3784 416.253 67.9484C417.363 69.1087 418.639 70.0982 420.04 70.8845C421.799 71.8593 423.681 72.5917 425.636 73.0616C425.567 73.2916 425.498 73.5369 425.421 73.7746C425.299 74.1656 425.191 74.5412 425.076 74.9628C424.824 75.9058 424.586 76.864 424.387 77.8299C424.379 77.8987 424.379 77.9682 424.387 78.0369C423.445 82.3974 422.972 86.8459 422.976 91.3069C422.974 93.4166 423.082 95.5251 423.298 97.6237C426.364 128.733 452.046 153.272 483.776 154.866C484.864 154.92 485.96 154.951 487.072 154.951C487.578 154.951 488.076 154.951 488.605 154.951C489.103 155.61 489.594 156.284 490.062 156.944C490.529 157.603 490.959 158.278 491.365 158.937L490.253 157.787L489.142 156.767C488.84 157.181 488.504 157.568 488.138 157.925C487.413 157.67 486.673 157.46 485.922 157.296C482.741 156.591 477.896 156.33 471.518 158.255C465.653 160.01 458.485 163.621 450.099 170.482L409.231 195.013L387.122 208.46L379.157 227.932C379.157 227.932 373.17 251.068 366.508 277.577C366.247 277.654 365.994 277.73 365.741 277.822C365.202 277.761 364.659 277.73 364.116 277.73C360.251 277.721 356.533 279.21 353.742 281.885C350.952 284.56 349.306 288.211 349.152 292.074C335.905 308.172 335.154 324.271 338.266 331.661C338.548 332.353 338.902 333.014 339.324 333.631C341.363 336.575 345.173 344.164 349.037 352.252C348.937 352.919 348.876 353.479 348.845 353.9C348.838 354.038 348.838 354.176 348.845 354.314C348.845 354.314 351.145 389.049 343.479 399.007C341.8 401.177 342.053 404.029 343.479 407.187C348.615 418.548 368.923 433.719 368.923 433.719C368.923 433.719 393.278 433.589 406.847 432.11C406.808 433.474 406.778 434.831 406.747 436.157C406.44 449.558 406.44 460.788 406.44 460.788L405.934 474.84C405.934 474.84 401.335 504.454 399.035 512.619C397.586 517.74 399.257 565.154 400.714 600.012H640.677C643.498 579.39 639.519 516.735 639.519 516.735C639.519 516.735 635.74 500.537 635.602 486.416C635.595 486.4 635.591 486.383 635.591 486.366C635.591 486.349 635.595 486.332 635.602 486.316C635.602 485.082 635.602 483.879 635.648 482.698L637.388 482.637L640.516 482.529H640.8C640.8 482.529 640.876 482.238 641.053 481.763C641.466 480.579 642.031 479.453 642.731 478.413C644.065 476.442 646.151 474.511 649.286 474.38C651.018 474.311 653.702 472.908 656.73 470.839C656.75 470.843 656.771 470.843 656.791 470.839C664.94 465.327 675.711 455.154 678.325 453.483C681.92 451.183 699.138 435.851 699.138 435.851C699.138 435.851 701.706 432.6 704.443 428.683L704.543 428.545C707.947 423.639 711.565 417.774 710.676 415.926C709.143 412.615 711.703 404.696 711.703 404.696C719.699 390.061 711.228 370.666 707.625 365.813ZM559.386 130.021C559.459 130.249 559.506 130.486 559.524 130.726C559.332 130.473 559.141 130.205 558.949 129.959L558.765 129.714L558.635 129.53L558.926 129.131C558.926 129.131 558.926 129.131 558.926 129.185C559.128 129.433 559.284 129.717 559.386 130.021ZM556.81 123.228C555.975 123.397 555.315 123.55 554.886 123.665C554.342 122.699 553.82 121.734 553.353 120.752C554.582 121.465 555.739 122.294 556.81 123.228ZM555.369 124.44C555.367 124.424 555.367 124.409 555.369 124.394L555.43 124.44C555.745 124.647 556.051 124.846 556.335 125.053C556.588 125.237 556.818 125.413 557.048 125.597C556.895 125.866 556.726 126.141 556.557 126.364C556.289 125.942 556.036 125.536 555.791 125.114C555.637 124.946 555.499 124.716 555.369 124.44ZM550.769 114.98C552.25 114.834 553.742 114.834 555.223 114.98C555.43 114.98 555.614 115.018 555.798 115.049C556.214 115.113 556.622 115.218 557.017 115.363C557.923 116.63 558.481 118.113 558.635 119.664L558.221 119.725L557.814 119.802C557.048 119.932 556.281 120.062 555.683 120.185L554.917 120.346C553.897 120.568 553.307 120.737 553.284 120.745C553.184 120.538 553.084 120.346 552.977 120.147C552.809 119.817 552.632 119.48 552.479 119.15C552.326 118.82 552.126 118.445 551.965 118.1C551.858 117.916 551.781 117.732 551.697 117.563C551.697 117.487 551.62 117.425 551.59 117.349C551.545 117.267 551.507 117.183 551.475 117.096C551.007 116.145 550.578 115.194 550.164 114.259C550.118 114.167 550.079 114.067 550.041 113.975L550.624 113.937V114.136L550.769 114.98ZM367.865 590.536C367.803 579.122 366.975 566.772 364.676 555.181C363.694 550.251 362.682 545.322 361.655 540.477C361.395 539.266 361.142 538.07 360.889 536.874L358.527 537.188H358.313C351.873 506.823 345.142 480.068 345.142 480.068C345.142 480.068 331.773 429.02 333.321 424.949C333.521 424.421 333.268 422.995 332.7 420.902C329.465 409.295 315.958 377.312 311.235 366.381C311.235 366.335 311.197 366.281 311.182 366.243C310.415 364.41 309.863 363.176 309.695 362.816L310.806 346.503L310.867 345.521L311.013 343.436L310.952 343.383L311.013 342.417C311.013 342.417 299.345 332.849 279.582 325.942C278.816 325.666 278.003 325.398 277.198 325.137C278.187 318.537 279.498 311.085 281.207 303.826C281.368 303.097 281.545 302.392 281.729 301.679C281.89 300.966 282.074 300.276 282.258 299.579C282.549 298.444 282.863 297.325 283.185 296.221C284.251 295.884 285.301 295.508 286.336 295.109L286.735 294.956C299.484 289.995 310.004 280.582 316.347 268.461C322.689 256.34 324.425 242.331 321.232 229.028C319.411 221.483 316.05 214.397 311.358 208.214C311.005 207.739 310.63 207.264 310.254 206.796C309.879 206.329 309.426 205.807 309.005 205.332C311.22 200.295 313.834 195.504 314.049 190.605C314.087 189.985 314.087 189.363 314.049 188.743V188.666C313.765 185.515 312.37 182.326 309.12 178.976C304.374 174.062 297.62 171.571 290.867 170.375C284.113 169.179 277.229 169.148 270.437 168.343C259.175 166.994 248.205 163.521 236.944 162.456C223.072 161.171 209.107 163.55 196.444 169.355C188.065 173.188 179.578 179.888 179.072 189.08C178.658 196.677 183.948 203.96 182.614 211.465C181.288 218.84 173.775 224.643 174.434 232.102C174.687 235.015 176.182 237.621 178.053 239.944C178.697 240.711 179.379 241.477 180.084 242.244C182.813 245.134 185.819 247.909 187.344 251.551C187.405 251.704 187.467 251.857 187.52 252.011C188.816 255.606 188.233 260.152 185.029 262.214C185.047 262.228 185.06 262.247 185.067 262.268C185.113 262.329 185.159 262.375 185.198 262.436C185.202 262.424 185.202 262.41 185.198 262.398C186.334 263.745 187.865 264.7 189.575 265.127L190.227 265.327C189.698 265.902 189.199 266.5 188.693 267.128L188.364 267.565C187.519 268.701 186.751 269.892 186.064 271.13C185.673 271.82 185.297 272.51 184.983 273.2C183.932 275.303 183.171 277.539 182.721 279.846C181.901 284.921 183.059 290.211 181.817 295.178C180.284 301.311 175.431 306.018 172.694 311.714C167.512 322.446 170.448 335.042 171.491 346.894C172.909 362.992 170.609 379.16 168.317 395.151C167.101 403.656 165.884 412.168 164.668 420.687C161.601 442.07 158.535 463.454 155.469 484.837C154.349 492.671 153.023 500.936 147.803 506.984H147.856C147.856 506.984 147.856 507.03 147.803 507.045C149.37 507.73 151.036 508.16 152.74 508.318C159.555 509 166.776 505.704 172.909 502.101C177.766 499.294 182.365 496.065 186.654 492.449C186.026 494.749 185.351 497.256 184.63 499.954C184.633 499.98 184.633 500.005 184.63 500.031C175.975 532.995 162.054 593.427 162.054 593.427C162.054 593.427 160.789 596.056 159.148 599.973H375.331C372.802 596.907 370.448 593.971 368.608 591.602L367.865 590.536ZM207.797 285.734C207.851 285.642 207.889 285.557 207.943 285.473C207.943 285.718 207.943 285.956 207.943 286.186C207.943 286.416 207.943 286.623 207.943 286.838C207.943 287.052 207.943 287.029 207.943 287.137C207.943 287.244 207.943 287.137 207.943 287.137C207.943 287.451 207.874 287.765 207.82 288.079C207.82 288.079 207.82 288.118 207.82 288.148L208.587 288.432L209.476 288.8C214.73 290.875 220.05 292.753 225.437 294.435C225.989 294.611 226.548 294.78 227.108 294.941L227.223 295.891C227.361 296.865 227.491 297.854 227.614 298.843C227.614 298.843 227.614 298.889 227.614 298.919C227.959 301.656 228.296 304.385 228.595 307.053C228.595 307.053 214.52 301.687 214.697 309.836C214.689 309.981 214.689 310.127 214.697 310.273C214.681 310.467 214.681 310.661 214.697 310.855C214.827 317.203 216.812 320.967 217.211 322.899C217.187 322.979 217.145 323.052 217.088 323.113C216.748 323.854 216.631 324.677 216.751 325.482C216.738 326.854 216.846 328.223 217.073 329.576C216.659 329.829 216.253 330.082 215.847 330.343C215.54 330.534 215.249 330.749 214.95 330.963C213.069 324.44 210.609 318.098 207.598 312.013C205.49 307.674 203.121 303.151 203.144 298.39C203.144 298.084 203.144 297.769 203.182 297.455C203.268 296.075 203.53 294.712 203.964 293.4C204.14 292.901 204.332 292.411 204.547 291.928C205.048 290.78 205.608 289.659 206.226 288.57C206.624 287.85 207.046 287.137 207.452 286.416C207.583 286.201 207.705 285.979 207.828 285.764L207.797 285.734ZM552.004 118.1C551.896 117.916 551.82 117.732 551.735 117.563C551.735 117.487 551.659 117.425 551.628 117.349C551.461 117.427 551.289 117.496 551.114 117.556C550.777 117.686 550.432 117.808 550.079 117.908C549.727 118.008 549.581 118.061 549.313 118.123L548.63 118.299L548.692 118.437C548.975 118.376 549.251 118.322 549.535 118.245L549.612 119.196C549.934 119.196 550.233 119.15 550.524 119.15H550.938C551.536 119.15 552.057 119.15 552.471 119.15C552.31 118.805 552.142 118.445 552.004 118.1Z" fill="url(#paint1_linear)"/>
<path d="M384.5 230.699L379.9 232.73C379.9 232.73 349.918 349.209 349.918 358.623C349.918 368.037 413.493 420.419 413.493 420.419L423.413 353.463C423.413 353.463 409.169 199.92 384.5 230.699Z" fill="#E8F5FF"/>
<path d="M523.953 193.649L497.391 179.789C495.903 173.446 493.263 167.431 489.602 162.042C485.715 156.43 480.548 150.918 474.109 148.043C457.834 140.745 542.95 102.438 542.95 102.438C544.291 107.04 545.869 111.569 547.68 116.007C552.065 126.831 559.34 140.83 568.716 144.816C584.653 151.6 523.953 193.649 523.953 193.649Z" fill="#FFC1C7"/>
<path opacity="0.1" d="M547.68 116.007C544.043 128.798 536.48 140.123 526.059 148.383C515.638 156.643 502.885 161.421 489.602 162.042C485.715 156.43 480.548 150.918 474.109 148.043C457.834 140.745 542.95 102.438 542.95 102.438C544.291 107.04 545.869 111.569 547.68 116.007Z" fill="black"/>
<path d="M550.072 96.6655C550.075 109.21 546.358 121.474 539.39 131.905C532.423 142.337 522.518 150.468 510.93 155.271C499.341 160.073 486.588 161.331 474.284 158.885C461.98 156.439 450.678 150.399 441.807 141.529C432.937 132.659 426.895 121.358 424.448 109.055C422 96.7512 423.256 83.9982 428.057 72.4087C432.858 60.8192 440.988 50.9138 451.419 43.9452C461.85 36.9766 474.113 33.2579 486.658 33.2594C494.996 33.2209 503.259 34.8345 510.969 38.0072C518.68 41.1799 525.685 45.8488 531.582 51.7442C537.478 57.6396 542.147 64.6447 545.321 72.3549C548.495 80.0651 550.109 88.3277 550.072 96.6655Z" fill="#FFC1C7"/>
<path d="M559.225 185.507L541.93 225.862L526.675 252.647H477.842L463.599 216.026L469.371 178.048H506.666L530.746 176.692L538.879 173.978L544.123 176.952L559.225 185.507Z" fill="#575A89"/>
<path opacity="0.1" d="M553.269 131.715C553.269 131.715 564.055 134.015 554.395 141.934C544.736 149.853 511.412 175.036 511.412 175.036C511.412 175.036 523.118 185.461 520.695 197.674L559.478 176.055L566.377 141.466C566.377 141.466 567.152 131.071 553.269 131.715Z" fill="black"/>
<path opacity="0.1" d="M519.039 175.036L494.37 179.106C494.37 179.106 499.46 197.927 496.915 203.27C496.838 203.436 496.774 203.608 496.724 203.783L486.658 230.99L494.201 252.356L520.312 216.747L511.412 203.27C511.412 203.27 520.818 190.805 526.414 186.481C532.01 182.157 519.039 175.036 519.039 175.036Z" fill="black"/>
<path d="M519.039 173.985L494.37 178.048C494.37 178.048 499.46 196.869 496.915 202.212C496.838 202.378 496.774 202.55 496.724 202.725L486.658 229.932L494.201 251.298L520.312 215.666L511.412 202.189C511.412 202.189 520.818 189.724 526.414 185.4C532.01 181.076 519.039 173.985 519.039 173.985Z" fill="#DCE6F2"/>
<path d="M554.303 129.683C554.303 129.683 565.09 131.983 555.423 139.902C545.756 147.821 511.412 175.036 511.412 175.036C511.412 175.036 524.13 183.43 521.715 195.634L560.498 174.024L567.397 139.434C567.397 139.434 568.164 129.039 554.303 129.683Z" fill="#575A89"/>
<path opacity="0.1" d="M491.296 164.441C491.296 164.441 493.649 168.841 504.037 176.776C504.037 176.776 486.742 185.975 493.358 198.908L466.903 192.008L462.832 179.29L491.296 164.441Z" fill="black"/>
<path d="M490.276 163.429C490.276 163.429 492.63 167.83 503.017 175.764C503.017 175.764 485.723 184.917 492.339 197.888L465.891 190.989L461.82 178.278L490.276 163.429Z" fill="#575A89"/>
<path opacity="0.1" d="M559.225 185.507L541.93 225.862L526.706 252.647H477.842L463.599 216.026L469.363 178.048H479.736C479.567 186.91 482.802 197.321 482.595 201.192C482.242 207.555 492.086 241.884 492.086 241.884C492.086 241.884 512.684 208.567 520.818 205.6C525.931 203.737 536.763 188.237 544.115 176.952L559.225 185.507Z" fill="black"/>
<path d="M627.353 397.865L625.598 400.073C625.598 400.073 638.316 463.908 634.797 478.405C634.199 481.018 633.857 483.683 633.777 486.362V486.477C633.157 501.227 637.611 520.369 637.611 520.369C637.611 520.369 641.168 576.791 639.144 599.996H401.02C399.625 565.683 398.123 521.227 399.487 516.298C401.787 508.165 406.387 478.658 406.387 478.658L406.893 464.675C406.893 464.675 406.893 451.16 407.307 436.104C407.483 429.334 407.744 422.228 408.119 415.926C408.602 408 409.277 401.323 410.204 398.042C410.776 395.555 411.104 393.018 411.186 390.467C411.186 390.23 411.186 389.984 411.232 389.739C411.232 388.973 411.308 388.145 411.339 387.294C411.339 387.056 411.339 386.818 411.339 386.527C411.485 381.59 411.431 375.733 411.27 369.662C411.27 369.332 411.27 368.995 411.27 368.657C411.14 364.104 410.948 359.458 410.733 355.043C410.066 341.244 409.2 329.576 409.2 329.576L379.954 232.677L387.835 213.266L409.706 199.866L450.145 175.45C469.869 159.236 482.856 161.183 487.808 162.962C488.289 163.126 488.76 163.318 489.218 163.537C489.372 163.613 489.494 163.675 489.609 163.744C489.767 163.818 489.918 163.905 490.062 164.004C488.706 164.657 487.527 165.627 486.627 166.833C485.613 168.205 484.891 169.771 484.504 171.433C484.245 172.463 484.063 173.511 483.96 174.568C483.86 175.68 483.822 176.829 483.822 177.987C483.876 180.526 484.094 183.058 484.473 185.569C484.473 185.615 484.473 185.676 484.473 185.737C484.726 187.531 485.04 189.287 485.347 190.935C485.344 190.963 485.344 190.991 485.347 191.019C485.7 192.944 486.052 194.722 486.29 196.255C486.336 196.531 486.374 196.784 486.413 197.022C486.582 198.035 486.661 199.061 486.65 200.088C486.737 202.569 487.07 205.034 487.647 207.448C487.846 208.46 488.076 209.541 488.329 210.668C488.674 212.201 489.05 213.872 489.456 215.574C489.678 216.509 489.916 217.475 490.161 218.433C490.253 218.817 490.353 219.2 490.445 219.591L490.598 220.196C492.231 226.69 494.002 233.152 495.091 237.062C495.735 239.362 496.141 240.78 496.141 240.78C496.141 240.78 507.686 222.113 516.901 211.488C517.039 211.334 517.161 211.189 517.292 211.051C518.204 210.001 519.101 209.042 519.959 208.199C521.838 206.329 523.524 204.995 524.881 204.504C525.17 204.398 525.45 204.267 525.717 204.113C529.488 201.974 535.575 194.208 541.271 186.075C541.831 185.308 542.375 184.473 542.927 183.683C544.192 181.858 545.418 180.026 546.576 178.271C547.465 176.929 548.316 175.626 549.121 174.384C552.954 168.42 555.653 163.974 555.653 163.974L560.973 163.736L561.9 163.69H562.521L586.677 162.571C586.677 162.571 587.72 162.747 589.437 163.092C589.529 163.092 589.621 163.092 589.721 163.153C598.291 164.855 622.102 170.244 623.559 177.719C625.337 186.872 663.744 199.084 663.744 199.084C664.25 205.217 673.656 209.257 673.656 209.257C673.656 209.257 687.9 246.897 684.09 261.647C680.326 276.212 693.887 312.243 694.247 313.255L691.649 316.536L627.353 397.865Z" fill="#E8F5FF"/>
<path opacity="0.1" d="M553.261 129.039C553.261 129.039 576.773 122.37 582.116 136.1C587.459 149.83 599.411 205.278 599.411 205.278C599.411 205.278 568.378 211.127 560.245 205.278C555.473 201.807 549.569 200.263 543.709 200.955L526.161 212.906L520.979 211.373C520.979 211.373 549.052 169.639 555.154 155.457C561.256 141.274 563.319 134.934 553.261 129.039Z" fill="black"/>
<path d="M552.241 125.973C552.241 125.973 575.768 119.303 581.135 133.033C586.501 146.763 598.429 202.212 598.429 202.212C598.429 202.212 567.405 208.061 559.263 202.212C554.495 198.74 548.593 197.196 542.735 197.888L525.172 209.84L519.99 208.306C519.99 208.306 548.063 166.572 554.165 152.39C560.268 138.208 562.299 131.883 552.241 125.973Z" fill="#E8F5FF"/>
<path opacity="0.1" d="M394.42 347.177C394.42 347.177 411.968 351.501 415.279 361.421C418.591 371.341 402.308 371.594 402.308 371.594C402.308 371.594 392.388 354.046 394.42 347.177Z" fill="black"/>
<path opacity="0.1" d="M459.781 420.419C459.781 420.419 416.805 508.418 426.725 516.812C436.645 525.206 459.781 420.419 459.781 420.419Z" fill="black"/>
<path opacity="0.1" d="M519.039 355.572C519.039 355.572 553.376 441.048 546.507 454.249C539.638 467.45 561.256 454.249 561.256 454.249L519.039 355.572Z" fill="black"/>
<path d="M566.853 440.006C566.853 440.006 450.88 445.602 484.711 481.717C518.541 517.831 587.965 483.25 587.965 483.25L566.853 440.006Z" fill="#FFC1C7"/>
<path opacity="0.1" d="M550.072 96.6655C550.082 104.983 548.449 113.221 545.265 120.906C544.2 121.028 543.134 121.105 542.107 121.151C540.573 117.785 541.394 113.899 541.424 110.196C541.455 106.493 540.09 102.139 536.526 101.142C529.419 99.1416 524.513 112.427 517.506 110.027C512.14 108.203 513.543 100.062 510.453 95.3622C508.008 91.6442 503.109 90.5939 499.299 88.2634C491.196 83.2882 491.442 75.3308 487.678 67.8027C483.737 59.9143 475.412 62.2448 468.183 66.8981C462.694 70.4398 457.956 75.1851 452.084 78.0062C447.001 80.4594 441.29 81.3487 435.656 81.479C432.187 81.6134 428.717 81.2468 425.352 80.3904C429.31 65.5136 438.543 52.5838 451.33 44.0124C464.117 35.441 479.585 31.813 494.85 33.8051C510.114 35.7971 524.133 43.2732 534.293 54.8392C544.452 66.4051 550.057 81.2713 550.064 96.6655H550.072Z" fill="black"/>
<path d="M468.206 64.8666C462.709 68.4083 457.979 73.146 452.107 75.9824C447.025 78.4279 441.313 79.3171 435.679 79.4475C428.779 79.6008 421.351 78.3895 416.636 73.4066C412.305 68.807 411.27 61.7312 413.102 55.698C414.934 49.6648 419.327 44.6589 424.486 41.0328C429.646 37.4068 435.633 34.9 439.052 29.71C440.861 26.9656 441.735 23.7305 443.237 20.8097C448.044 11.4648 458.853 6.40519 469.302 5.77658C479.751 5.14796 490.108 8.26038 500.058 11.6335C510.009 15.0065 520.036 18.7169 530.539 19.4145C535.215 19.7058 540.075 19.4145 544.414 21.1854C550.248 23.5542 554.073 29.2194 556.68 34.9843C559.601 41.4851 561.418 48.5839 561.111 55.6827C560.467 70.8385 550.455 85.7106 554.855 100.23C556.021 104.102 558.205 108.073 557.04 111.944C555.338 117.594 548.048 118.882 542.153 119.15C540.62 115.785 541.44 111.89 541.47 108.195C541.501 104.5 540.137 100.138 536.579 99.1416C529.465 97.1561 524.559 110.418 517.568 108.027C512.24 106.194 513.62 98.0607 510.523 93.3614C508.077 89.6357 503.171 88.5931 499.368 86.2626C491.265 81.2873 491.511 73.3299 487.747 65.8019C483.776 57.8752 475.443 60.2056 468.206 64.8666Z" fill="#99607E"/>
<path d="M355.752 356.583L349.903 358.623C349.903 358.623 352.203 393.212 344.537 403.132C336.871 413.052 369.712 437.713 369.712 437.713C369.712 437.713 414.727 437.46 416 433.88C417.272 430.3 413.7 369.792 413.7 369.792C413.7 369.792 389.537 360.378 391.568 345.376C391.568 345.376 384.193 380.724 373.262 379.198C362.33 377.673 349.918 368.543 355.752 356.583Z" fill="#E8F5FF"/>
<path opacity="0.1" d="M375.262 389.9C383.785 389.9 390.694 383.581 390.694 375.787C390.694 367.992 383.785 361.674 375.262 361.674C366.74 361.674 359.831 367.992 359.831 375.787C359.831 383.581 366.74 389.9 375.262 389.9Z" fill="black"/>
<path d="M392.135 357.603C392.135 357.603 389.069 264.016 362.376 284.867C335.683 305.719 335.422 330.657 340.504 338.024C345.587 345.391 361.885 382.272 361.885 382.272C364.435 383.75 367.298 384.602 370.24 384.76C373.182 384.918 376.12 384.376 378.813 383.179C381.505 381.982 383.876 380.165 385.731 377.875C387.586 375.586 388.871 372.889 389.483 370.007L392.135 357.603Z" fill="#FFC1C7"/>
<path opacity="0.1" d="M558.65 120.545C558.526 120.134 558.286 119.767 557.96 119.487C556.641 118.284 553.805 117.862 549.527 118.23L549.704 120.254C555.407 119.763 556.534 120.898 556.68 121.09V121.281L556.856 121.534C557.567 122.49 558.071 123.584 558.335 124.745C558.599 125.907 558.618 127.111 558.389 128.28C557.14 134.528 549.466 139.503 549.389 139.557L549.205 139.664L549.09 139.841C545.779 144.755 527.05 158.623 522.152 162.21L521.723 161.72C519.53 163.621 500.258 180.494 499.215 186.956C498.54 191.012 493.971 192.583 492.316 193.02C490.568 191.694 484.895 187.179 481.943 182.119C479.176 177.358 490.315 168.067 491.296 164.441L489.763 162.87C489.602 163.452 475.297 176.822 479.276 183.652C482.465 189.134 488.291 193.825 490.33 195.374C489.678 201.292 485.623 236.042 479.391 244.276C471.648 254.51 465.139 306.087 465.86 324.095C466.496 340.094 462.318 370.313 448.366 383.292C445.95 385.637 443.036 387.407 439.841 388.469C436.646 389.531 433.253 389.858 429.914 389.425H429.745H429.576C429.377 389.425 409.139 391.495 392.135 377.159C378.222 365.453 370.341 346.349 368.7 320.361H368.363L368.225 312.795C371.998 312.206 375.395 310.178 377.704 307.137C380.012 304.095 381.052 300.278 380.605 296.486C380.158 292.694 378.258 289.223 375.305 286.802C372.353 284.381 368.577 283.199 364.77 283.504C360.964 283.809 357.425 285.578 354.895 288.438C352.366 291.298 351.043 295.027 351.206 298.842C351.368 302.657 353.003 306.26 355.766 308.895C358.529 311.53 362.207 312.991 366.025 312.971H366.193L366.331 320.492L365.657 320.538C367.343 347.369 375.623 367.216 390.188 379.474C401.259 388.648 415.4 393.276 429.753 392.422C430.771 392.534 431.795 392.59 432.819 392.591C439.398 392.625 445.728 390.079 450.451 385.5C465.147 371.816 469.616 340.485 468.919 323.941C468.152 304.86 474.983 255.138 481.836 246.085C488.551 237.2 492.622 202.58 493.335 195.872C495.765 195.19 501.262 193.036 502.197 187.439C502.872 183.392 515.743 170.919 523.662 164.012L523.424 163.736C527.687 160.623 540.941 150.811 547.511 144.509C549.55 142.555 551.574 140.6 553.69 138.737C556.235 136.483 559.47 132.903 560.321 128.671C560.611 127.274 560.613 125.833 560.325 124.436C560.038 123.038 559.468 121.714 558.65 120.545Z" fill="black"/>
<path d="M490.069 194.891C489.747 194.668 482.112 189.203 478.287 182.625C474.316 175.795 488.621 162.433 488.774 161.85L490.307 163.422C489.334 167.04 478.195 176.339 480.962 181.092C484.45 187.094 491.794 192.346 491.871 192.399L490.069 194.891Z" fill="#353146"/>
<path d="M521.155 163.698L519.959 162.049C520.205 161.873 544.284 144.456 548.079 138.821L548.201 138.652L548.378 138.538C548.454 138.484 556.128 133.516 557.378 127.261C557.608 126.093 557.591 124.889 557.326 123.729C557.062 122.568 556.557 121.476 555.844 120.522L555.668 120.262V120.078C555.515 119.878 554.388 118.751 548.684 119.242L548.508 117.211C552.793 116.843 555.622 117.264 556.941 118.468C557.269 118.75 557.511 119.12 557.638 119.533C558.467 120.699 559.048 122.022 559.346 123.421C559.644 124.82 559.653 126.265 559.371 127.667C558.52 131.906 555.292 135.486 552.74 137.733C550.631 139.595 548.6 141.566 546.568 143.505C538.864 150.888 521.999 163.092 521.155 163.698Z" fill="#E8F5FF"/>
<path d="M367.236 310.126L365.205 310.163L365.431 322.511L367.462 322.474L367.236 310.126Z" fill="#E8F5FF"/>
<path d="M365.036 311.998C373.228 311.998 379.87 305.356 379.87 297.164C379.87 288.971 373.228 282.33 365.036 282.33C356.843 282.33 350.202 288.971 350.202 297.164C350.202 305.356 356.843 311.998 365.036 311.998Z" fill="#6C63FF"/>
<path d="M365.036 309.483C371.84 309.483 377.355 303.968 377.355 297.164C377.355 290.36 371.84 284.844 365.036 284.844C358.232 284.844 352.716 290.36 352.716 297.164C352.716 303.968 358.232 309.483 365.036 309.483Z" fill="#E8F5FF"/>
<path d="M431.853 391.602C430.829 391.604 429.805 391.55 428.787 391.441C414.436 392.286 400.297 387.659 389.222 378.493C374.657 366.227 366.393 346.403 364.691 319.549L367.757 319.357C369.398 345.345 377.279 364.456 391.2 376.155C408.204 390.452 428.434 388.421 428.634 388.421H428.802H428.971C432.311 388.851 435.705 388.523 438.901 387.462C442.097 386.4 445.012 384.631 447.431 382.288C461.375 369.309 465.553 339.089 464.917 323.09C464.15 305.067 470.659 253.49 478.409 243.264C485.194 234.302 489.403 193.91 489.449 193.503L489.563 192.353L490.698 192.154C490.767 192.154 497.391 190.897 498.218 185.944C499.292 179.49 518.534 162.617 520.718 160.708L522.719 163.008C514.77 169.907 501.898 182.387 501.254 186.443C500.319 192.054 494.822 194.201 492.4 194.875C491.633 201.591 487.593 236.203 480.901 245.088C474.047 254.142 467.217 303.864 467.984 322.945C468.643 339.488 464.219 370.827 449.524 384.503C444.792 389.094 438.446 391.643 431.853 391.602Z" fill="#353146"/>
<g opacity="0.1">
<path opacity="0.1" d="M556.603 78.5429C557.86 73.8972 559.378 69.2209 560.436 64.514C559.171 69.2439 557.646 73.8972 556.603 78.5429Z" fill="black"/>
<path opacity="0.1" d="M543.778 115.049C542.245 111.683 543.065 107.789 543.096 104.094C543.126 100.399 541.762 96.0752 538.205 95.0402C531.091 93.0547 526.184 106.325 519.193 103.925C513.827 102.093 515.245 93.9593 512.148 89.26C509.702 85.5343 504.804 84.4917 501.001 82.1613C492.891 77.186 493.136 69.2286 489.379 61.7005C485.431 53.8045 477.114 56.135 469.877 60.7959C464.38 64.3376 459.65 69.0829 453.778 71.9117C448.696 74.3572 442.984 75.2465 437.35 75.3768C430.489 75.5378 423.022 74.3189 418.307 69.3359C414.674 65.5029 413.363 59.8837 414.114 54.6171C413.984 54.9774 413.869 55.3377 413.754 55.698C411.914 61.7312 412.987 68.8223 417.288 73.4066C422.002 78.3895 429.469 79.6008 436.33 79.4475C441.972 79.3171 447.676 78.4279 452.766 75.9824C458.654 73.146 463.384 68.4083 468.865 64.8666C476.102 60.2056 484.427 57.8752 488.368 65.7712C492.124 73.2993 491.886 81.2567 499.989 86.2319C503.822 88.5318 508.69 89.605 511.143 93.3307C514.21 98.0453 512.853 106.164 518.189 107.996C525.172 110.388 530.079 97.1254 537.193 99.1109C540.75 100.108 542.122 104.477 542.084 108.165C542.045 111.852 541.248 115.754 542.766 119.119C548.661 118.851 555.952 117.586 557.661 111.913C557.896 111.099 558.005 110.254 557.983 109.406C555.492 113.707 549.083 114.811 543.778 115.049Z" fill="black"/>
</g>
<path opacity="0.1" d="M682.327 303.941L691.227 313.354C691.227 313.354 698.349 365.231 701.906 370.083C705.463 374.936 713.865 394.239 705.977 408.736C705.977 408.736 703.431 416.624 704.957 419.928C706.483 423.232 693.519 439.768 693.519 439.768C693.519 439.768 676.478 455.023 672.913 457.316C669.348 459.608 650.536 477.914 644.18 478.167C637.825 478.42 635.748 486.309 635.748 486.309L599.886 487.581C599.886 487.581 580.077 486.546 575.768 489.344C575.768 489.344 578.068 459.079 555.936 439.239L584.163 429.066C584.163 429.066 594.849 424.466 598.153 419.66C600.232 416.713 603.181 414.491 606.586 413.305C606.586 413.305 614.467 407.708 614.72 404.657C614.973 401.606 624.356 397.865 624.356 397.865L619.043 352.52L621.841 277.24C621.841 277.24 630.742 214.163 649.562 217.728C668.382 221.293 682.327 303.941 682.327 303.941Z" fill="black"/>
<path d="M685.393 303.941L694.293 313.354C694.293 313.354 701.415 365.231 704.972 370.083C708.529 374.936 716.931 394.239 709.043 408.736C709.043 408.736 706.506 416.624 708.031 419.928C709.557 423.232 696.586 439.768 696.586 439.768C696.586 439.768 679.544 455.023 675.979 457.316C672.414 459.608 653.602 477.914 647.247 478.167C640.892 478.42 638.814 486.309 638.814 486.309L602.952 487.581C602.952 487.581 583.128 486.546 578.835 489.344C578.835 489.344 581.135 459.079 559.003 439.239L587.229 429.066C587.229 429.066 597.916 424.466 601.22 419.66C603.298 416.713 606.247 414.491 609.652 413.305C609.652 413.305 617.533 407.708 617.786 404.657C618.039 401.606 627.422 397.865 627.422 397.865L622.11 352.52L624.908 277.24C624.908 277.24 633.808 214.163 652.628 217.728C671.449 221.293 685.393 303.941 685.393 303.941Z" fill="#E8F5FF"/>
<path opacity="0.1" d="M652.306 379.988C652.306 379.988 678.501 373.088 685.37 381.521C692.239 389.954 652.306 379.988 652.306 379.988Z" fill="black"/>
<path opacity="0.1" d="M646.204 391.556C655.104 397.789 682.572 398.042 682.572 398.042L646.204 391.556Z" fill="black"/>
<path opacity="0.1" d="M659.681 422.711C660.448 422.964 678.563 442.298 686.167 436.449C693.772 430.599 659.681 422.711 659.681 422.711Z" fill="black"/>
<path opacity="0.1" d="M415.716 260.451C415.716 260.451 421.036 297.079 418.415 311.998C415.793 326.916 425.36 345.399 425.36 345.399L415.716 260.451Z" fill="black"/>
<path d="M297.935 275.346C291.802 280.153 287.325 291.529 284.082 304.033C278.425 325.843 276.577 351.133 276.577 351.133C276.577 351.133 227.744 339.94 231.301 334.858C233.54 331.661 230.535 307.574 228.028 290.111C226.533 279.792 225.199 271.781 225.199 271.781C225.199 271.781 314.723 262.115 297.935 275.346Z" fill="#FFCCD0"/>
<path opacity="0.1" d="M297.935 274.327C291.802 279.141 287.325 290.51 284.082 303.013C274.353 305.967 264.005 306.234 254.137 303.784C244.268 301.335 235.246 296.26 228.028 289.099C226.533 278.773 225.199 270.762 225.199 270.762C225.199 270.762 314.723 261.103 297.935 274.327Z" fill="black"/>
<path d="M324.183 246.928C324.188 260.262 319.476 273.167 310.881 283.361C302.285 293.554 290.361 300.378 277.218 302.625C264.075 304.872 250.561 302.397 239.067 295.638C227.574 288.879 218.842 278.271 214.417 265.693C209.992 253.115 210.16 239.377 214.89 226.911C219.621 214.444 228.609 204.053 240.264 197.577C251.919 191.1 265.49 188.955 278.574 191.522C291.658 194.089 303.413 201.203 311.757 211.603C319.797 221.621 324.181 234.082 324.183 246.928Z" fill="#FFCCD0"/>
<path opacity="0.1" d="M368.708 599.996H352.609L351.252 571.563L349.834 542.133C349.834 542.133 353.491 541.589 359.317 540.776L361.67 540.462H361.862C363.135 546.434 364.392 552.566 365.603 558.692C367.619 569.566 368.669 580.597 368.739 591.656C368.739 592.422 368.739 593.189 368.739 593.91C368.785 595.956 368.739 598.003 368.708 599.996Z" fill="black"/>
<path d="M365.618 599.996H163.725C164.599 598.011 165.182 596.807 165.182 596.807C165.182 596.807 181.334 526.141 189.544 496.244C189.547 496.218 189.547 496.193 189.544 496.167C190.57 492.106 191.809 488.101 193.255 484.17C193.348 483.902 193.469 483.646 193.615 483.403C197.678 476.795 202.768 469.673 195.646 459.5C188.525 449.327 191.047 404.565 191.047 404.565C191.047 404.565 199.694 366.411 208.847 346.066C210.237 342.914 212.208 340.053 214.658 337.633C215.455 336.854 216.305 336.131 217.203 335.471C217.886 334.958 218.598 334.484 219.335 334.053L219.48 333.961C223.325 331.781 227.595 330.455 231.999 330.074C235.127 329.747 238.285 329.835 241.39 330.335C256.231 332.512 268.114 336.153 277.558 340.301C303.155 351.547 310.906 366.618 311.059 366.933L311.12 367.063C312.148 369.462 327.173 404.542 332.585 420.909C333.988 425.172 334.755 428.169 334.448 428.989C332.915 433.052 346.147 483.917 346.147 483.917C346.147 483.917 352.28 508.448 358.412 537.204C358.681 538.4 358.934 539.595 359.179 540.807C360.275 546.027 361.364 551.347 362.414 556.66C364.449 567.609 365.498 578.718 365.55 589.854C365.662 593.324 365.685 596.705 365.618 599.996Z" fill="#FF748E"/>
<path opacity="0.1" d="M230.795 312.58C230.795 312.58 216.866 307.214 217.035 315.355C217.203 323.497 220.431 327.391 219.411 328.579C218.392 329.768 219.917 336.889 219.917 336.889C219.917 336.889 238.737 336.889 247.385 340.784C256.032 344.678 287.908 352.482 291.978 354.859C296.049 357.235 311.143 367.891 311.143 367.891L312.5 347.714C312.5 347.714 296.9 334.827 271.303 328.219C245.706 321.611 230.795 312.58 230.795 312.58Z" fill="black"/>
<path d="M230.795 311.561C230.795 311.561 216.866 306.194 217.035 314.336C217.203 322.477 220.431 326.371 219.411 327.56C218.392 328.748 219.917 335.87 219.917 335.87C219.917 335.87 238.737 335.87 247.385 339.772C256.032 343.674 287.908 351.47 291.978 353.839C296.049 356.208 311.143 366.871 311.143 366.871L312.516 346.756C312.516 346.756 296.915 333.869 271.318 327.261C245.721 320.653 230.795 311.561 230.795 311.561Z" fill="#FF748E"/>
<path opacity="0.1" d="M272.844 360.117C272.844 360.117 299.46 388.934 298.103 396.915C296.747 404.895 272.844 360.117 272.844 360.117Z" fill="black"/>
<path opacity="0.1" d="M229.607 464.215C229.607 464.215 210.097 482.192 204.347 483.212C198.598 484.231 208.755 487.62 215.364 484.913C221.972 482.207 236.062 475.086 236.062 475.086L229.607 464.215Z" fill="black"/>
<path d="M373.545 599.996H328.047C321.684 594.477 315.666 589.364 311.833 586.29C305.701 581.368 301.277 574.123 298.456 568.297C297.82 566.971 297.268 565.729 296.8 564.602C295.963 562.661 295.226 560.678 294.592 558.661L328.285 538.653C330.147 540.236 331.896 541.947 333.521 543.774L333.927 544.241C335.798 546.449 337.446 548.956 337.591 551.01C337.76 553.402 344.414 562.655 351.214 571.54C358.113 580.578 365.182 589.218 365.649 589.801C365.649 589.801 366.814 591.387 368.716 593.825C370.057 595.588 371.713 597.704 373.545 599.996Z" fill="#FFCCD0"/>
<path opacity="0.1" d="M311.757 211.603C310.139 215.252 308.69 219.039 308.476 223.102C307.87 234.831 308.851 261.057 295.865 266.944C289.433 269.842 282.549 263.479 275.496 263.326C270.421 263.218 265.768 266.438 262.671 270.463C259.574 274.488 257.65 279.263 255.403 283.817C253.359 287.95 251.004 291.922 248.358 295.7C247.568 296.855 246.697 297.954 245.752 298.988C237.833 295.647 230.782 290.542 225.135 284.063C219.488 277.583 215.395 269.901 213.167 261.6C210.939 253.299 210.635 244.599 212.279 236.163C213.923 227.727 217.47 219.777 222.652 212.92C227.833 206.063 234.511 200.479 242.178 196.593C249.844 192.708 258.296 190.624 266.89 190.5C275.484 190.376 283.992 192.215 291.768 195.877C299.543 199.54 306.38 204.929 311.757 211.633V211.603Z" fill="black"/>
<path d="M307.456 221.032C306.843 232.761 307.832 258.987 294.838 264.867C288.406 267.764 281.522 261.409 274.469 261.256C269.394 261.141 264.748 264.368 261.644 268.385C258.539 272.402 256.63 277.186 254.376 281.747C252.331 285.88 249.976 289.852 247.331 293.63C245.752 295.868 244.004 298.114 241.574 299.372C237.342 301.579 232.214 300.338 227.675 298.919C221.788 297.064 215.987 294.974 210.273 292.648C210.404 291.786 210.471 290.915 210.473 290.042C210.304 290.364 210.12 290.663 209.936 290.985L209.576 291.614C208.924 292.763 208.288 293.913 207.705 295.094C207.483 295.546 207.268 296.014 207.077 296.482C206.306 298.222 205.822 300.075 205.643 301.97C205.252 307.084 207.774 311.936 210.013 316.536C218.622 334.329 223.942 355.135 217.464 373.801C214.658 381.92 209.798 389.134 206.249 396.976C200.044 410.866 198.218 426.317 201.013 441.27C202.784 450.562 206.333 459.761 205.459 469.183C203.926 485.396 189.943 497.463 175.937 505.757C168.371 510.219 159.11 514.19 151.076 510.664C156.197 504.684 157.515 496.412 158.619 488.608C161.64 467.322 164.668 446.026 167.704 424.719C168.915 416.241 170.124 407.762 171.33 399.283C173.584 383.353 175.868 367.247 174.457 351.217C173.43 339.404 170.532 326.862 175.653 316.168C178.36 310.503 183.181 305.811 184.684 299.709C185.918 294.749 184.768 289.475 185.581 284.423C186.026 282.124 186.779 279.896 187.819 277.799C189.145 274.954 190.875 272.315 192.956 269.965C190.901 269.367 188.985 268.546 187.819 266.829C191.116 264.683 191.614 259.845 190.119 256.212C188.624 252.578 185.635 249.81 182.944 246.943C180.253 244.076 177.662 240.734 177.325 236.824C176.673 229.38 184.109 223.616 185.42 216.271C186.746 208.797 181.503 201.53 181.924 193.963C182.415 184.818 190.817 178.171 199.112 174.315C211.629 168.521 225.456 166.14 239.19 167.416C250.367 168.474 261.184 171.931 272.33 173.272C279.053 174.039 285.868 174.116 292.546 175.296C299.223 176.477 305.915 178.968 310.615 183.867C323.003 196.784 308.161 207.417 307.456 221.032Z" fill="#FFE0D0"/>
<path opacity="0.1" d="M297.092 569.304C293.182 567.601 286.068 568.619 273.856 564.881C261.644 561.144 259.29 544.254 259.29 544.254V544.2C259.145 543.815 258.01 541.303 250.329 532.503C241.842 522.787 223.497 473.711 223.497 473.711C223.497 473.711 207.23 456.151 207.744 449.678C208.257 443.206 204.853 425.984 205.191 406.721C205.528 387.457 241.812 374.682 241.812 374.682C311.672 362.238 295.221 443.19 293.358 449.324C291.495 455.457 301.162 472.024 301.162 472.024C299.798 479.236 306.758 490.401 306.758 490.401C306.758 490.401 308.445 500.28 308.79 504.032C308.809 504.205 308.848 504.376 308.905 504.541C310.024 508.077 319.147 511.283 322.857 513.232C326.759 515.282 339.309 533.174 339.309 533.174C342.015 546.312 300.986 571.03 297.092 569.304Z" fill="black"/>
<path d="M299.123 566.238C295.221 564.527 288.099 565.552 275.895 561.807C263.69 558.063 261.329 541.188 261.329 541.188V541.134C261.191 540.741 260.049 538.237 252.368 529.437C243.881 519.721 225.536 470.637 225.536 470.637C225.536 470.637 209.269 453.084 209.775 446.612C210.281 440.139 206.893 422.918 207.23 403.67C207.567 384.422 243.828 371.654 243.828 371.654C313.689 359.21 297.237 440.162 295.374 446.296C293.511 452.429 303.178 468.996 303.178 468.996C301.814 476.208 308.775 487.373 308.775 487.373C308.775 487.373 310.461 497.252 310.814 501.004C310.827 501.178 310.863 501.349 310.921 501.513C312.04 505.049 321.163 508.255 324.881 510.204C328.775 512.246 341.332 530.146 341.332 530.146C344.054 543.26 303.025 567.979 299.123 566.238Z" fill="#FF748E"/>
<path opacity="0.1" d="M245.208 413.696C245.208 413.696 275.726 446.893 283.691 446.893C291.656 446.893 245.208 413.696 245.208 413.696Z" fill="black"/>
<path d="M299.123 566.237C295.221 564.509 288.099 565.544 275.895 561.761C263.69 557.977 261.329 540.928 261.329 540.928V540.874C269.417 535.424 289.901 520.034 297.973 514.405C303.654 510.458 308.292 504.659 311.005 500.813C312.125 504.386 321.247 507.625 324.965 509.594C328.86 511.657 341.417 529.741 341.417 529.741C344.054 543.023 303.025 567.996 299.123 566.237Z" fill="#FF748E"/>
<g opacity="0.1">
<path opacity="0.1" d="M187.865 267.171C187.904 267.233 187.957 267.286 188.003 267.348C188.233 267.056 188.471 266.764 188.716 266.487C188.455 266.742 188.17 266.971 187.865 267.171Z" fill="black"/>
<path opacity="0.1" d="M205.651 302.419C205.973 298.151 208.249 294.391 210.381 290.639C208.985 290.101 207.59 289.555 206.21 288.986C206.342 288.123 206.408 287.252 206.41 286.379C204.255 290.224 201.91 294.007 201.58 298.336C201.189 303.472 203.711 308.332 205.95 312.945C214.566 330.785 219.879 351.653 213.401 370.384C210.588 378.52 205.735 385.763 202.186 393.629C195.983 407.559 194.16 423.054 196.957 438.05C198.713 447.377 202.27 456.596 201.396 466.047C199.863 482.309 185.888 494.412 171.874 502.724C166.147 506.123 159.455 509.237 153.054 509.014C152.461 509.971 151.8 510.883 151.076 511.744C159.118 515.304 168.371 511.298 175.937 506.807C189.958 498.503 203.964 486.431 205.497 470.137C206.371 460.687 202.814 451.468 201.051 442.141C198.252 427.146 200.071 411.652 206.264 397.72C209.79 389.861 214.697 382.61 217.479 374.475C223.957 355.744 218.637 334.875 210.028 317.036C207.797 312.392 205.26 307.555 205.651 302.419Z" fill="black"/>
<path opacity="0.1" d="M310.599 183.965C309.845 183.189 309.035 182.47 308.177 181.812C317.468 193.9 304.052 204.173 303.385 217.183C302.787 228.948 303.769 255.26 290.775 261.15C284.351 264.065 277.459 257.683 270.414 257.529C265.331 257.421 260.685 260.658 257.581 264.687C254.476 268.717 252.567 273.515 250.321 278.082C248.272 282.227 245.914 286.211 243.268 290.001C241.735 292.254 239.941 294.499 237.503 295.768C233.287 297.974 228.158 296.736 223.612 295.306C219.192 293.912 214.812 292.374 210.473 290.693C210.464 291.493 210.397 292.293 210.273 293.084C215.992 295.421 221.795 297.518 227.683 299.374C232.221 300.804 237.35 302.042 241.574 299.835C244.004 298.566 245.767 296.313 247.339 294.06C249.987 290.276 252.342 286.295 254.384 282.15C256.638 277.582 258.539 272.777 261.651 268.747C264.764 264.718 269.402 261.489 274.477 261.596C281.529 261.75 288.421 268.132 294.845 265.218C307.839 259.328 306.85 233.015 307.456 221.251C308.161 207.572 323.003 196.914 310.599 183.965Z" fill="black"/>
</g>
<path d="M209.944 291.829C206.931 277.648 192.963 269.972 192.963 269.972C190.882 272.416 189.152 275.16 187.827 278.119C193.584 281.395 204.194 292.379 207.713 296.102L209.944 291.829Z" fill="#FF748E"/>
<path opacity="0.1" d="M209.583 292.422C208.932 293.619 208.295 294.816 207.713 296.045C207.491 296.516 207.276 297.002 207.084 297.489C203.067 293.276 193.285 283.262 187.827 280.158C189.154 277.198 190.884 274.451 192.963 272.004C192.963 272.004 205.973 279.161 209.583 292.422Z" fill="black"/>
<defs>
<linearGradient id="paint0_linear" x1="559.647" y1="73.1306" x2="559.647" y2="59.0404" gradientUnits="userSpaceOnUse">
<stop stop-color="#808080" stop-opacity="0.25"/>
<stop offset="0.54" stop-color="#808080" stop-opacity="0.12"/>
<stop offset="1" stop-color="#808080" stop-opacity="0.1"/>
</linearGradient>
<linearGradient id="paint1_linear" x1="351698" y1="504814" x2="351698" y2="35196.7" gradientUnits="userSpaceOnUse">
<stop stop-color="#808080" stop-opacity="0.25"/>
<stop offset="0.54" stop-color="#808080" stop-opacity="0.12"/>
<stop offset="1" stop-color="#808080" stop-opacity="0.1"/>
</linearGradient>
</defs>
</svg>
