<svg xmlns="http://www.w3.org/2000/svg" xmlns:xlink="http://www.w3.org/1999/xlink" version="1.1" x="0px" y="0px" viewBox="0 0 100 125" enable-background="new 0 0 100 100" xml:space="preserve" fill="rgb(111, 188, 180)"><path d="M85.259,66.226c0.004-0.004-1.826-2.504-6.159-4.169c0,0-1.961-0.597-4.497-1.534c0.505,0.883,0.897,1.901,1.158,3.04  c0.276,1.203,0.378,2.465,0.316,3.672c0.012,0.005,0.025,0.011,0.038,0.017c1.906,0.874,2.743,3.127,1.87,5.032  c-0.873,1.906-3.127,2.742-5.033,1.869s-2.742-3.126-1.869-5.032c0.642-1.402,2.032-2.225,3.481-2.214  c0.075-2.822-0.845-5.989-2.939-7.552c-2.237-0.934-4.522-2.031-6.143-3.167c0,0.089-0.007,0.178-0.007,0.271  c-0.02,1.204-0.157,2.679-0.343,4.205c-0.554,4.543-1.576,9.587-1.576,9.587c-1.357-2.23-2.573-3.701-3.653-4.65  c-1.319-1.159-2.424-1.526-3.289-1.526c-0.106,0-0.208,0.004-0.305,0.016c-1.074,0.111-1.725,0.78-1.913,0.994  c5.919-7.22,8.029-13.39,8.211-13.955c-0.034-0.453-0.042-0.931-0.016-1.443c0,0-0.032-0.574-0.095-0.576  c-0.005,0-0.007,0.002-0.011,0.006c1.695-2.176,3.076-3.991,3.991-6.523c1.556-1.563,2.361-5.36,2.361-5.36  c1.295-3.64,0.491-5.055-0.119-5.58c0.938-3.049,2.981-11.647-1.883-17.118c0,0-1.864-4.123-9.359-5.62c0,0-2.885-1.168-4.042-4.205  c0,0-2.579,0.333-2.579,2.582l-1.25-0.499L48.45,7.608l-1.34-0.815c0,0-0.091-0.029-0.283-0.029c-0.256,0-0.695,0.05-1.342,0.278  c0,0-9.749,3.748-12.248,11.492c0,0-1.384,3.286,0.304,12.858c-0.409,0.164-2.215,1.163-0.545,5.844c0,0,0.726,3.435,2.136,5.114  c0.797,2.459,2.011,4.836,3.495,6.937c-0.006-0.006-0.014-0.012-0.018-0.018c0,0,0.186,0.92,0.016,2.208  c0.346,0.945,3.144,8.247,8.065,13.768c-0.258-0.263-0.797-0.703-1.597-0.836c-0.158-0.028-0.325-0.045-0.503-0.045  c-0.795,0-1.79,0.312-2.972,1.265c-1.15,0.93-2.475,2.465-3.963,4.921c0,0-1.222-6.027-1.721-10.835  c-0.118-1.153-0.195-2.242-0.203-3.151c-0.002-0.182,0-0.355,0.002-0.521c-1.471,1.071-3.563,2.113-5.674,3.024  c-1.287,1.68-2.139,3.754-2.296,5.506c0.67,0.262,1.199,0.852,1.43,1.593c2.105,0.858,4.05,2.964,5.529,6.057  c0.195,0.409,0.15,0.871-0.077,1.227c0.94,2.288,1.491,4.802,1.491,6.967c0,3.63-0.248,5.179-2.74,5.612  c-0.187,0.229-0.47,0.376-0.787,0.376h-2.162c-0.559,0-1.012-0.453-1.012-1.013c0-0.002,0-0.004,0-0.006  c0.003-0.557,0.455-1.006,1.012-1.006h2.162c0.197,0,0.381,0.058,0.538,0.155c0.675-0.114,0.935-0.312,1.087-0.573  c0.322-0.557,0.383-1.676,0.383-3.546c0-1.994-0.515-4.318-1.395-6.435c-0.332-0.099-0.623-0.33-0.784-0.667  c-1.512-3.164-3.528-5.052-5.396-5.052c-1.902,0-4.018,2.037-5.519,5.316c-0.179,0.389-0.53,0.645-0.921,0.717  c-0.801,2.03-1.267,4.226-1.267,6.12c0,1.833,0.068,3.003,0.418,3.565c0.165,0.266,0.445,0.462,1.181,0.571  c0.162-0.109,0.355-0.173,0.566-0.173h2.162c0.558,0,1.01,0.452,1.012,1.01c0,0.001,0,0.001,0,0.002c0,0.56-0.453,1.013-1.012,1.013  h-2.162c-0.304,0-0.574-0.135-0.761-0.346c-1.009-0.148-1.786-0.487-2.276-1.275c-0.547-0.878-0.646-2.16-0.646-4.367  c0-2.113,0.524-4.557,1.424-6.8c-0.164-0.33-0.185-0.729-0.02-1.091c0.869-1.897,1.963-3.512,3.164-4.67  c0.748-0.72,1.541-1.263,2.354-1.619c0.223-0.793,0.785-1.422,1.501-1.683c0.108-1.436,0.604-3.017,1.378-4.489  c-3.103,1.201-5.716,1.997-5.716,1.997c-4.329,1.669-6.162,4.165-6.162,4.165c-5.224,7.732-6.688,17.226-7.054,20.479  c0,4.419,18.72,8.007,41.81,8.007c23.093,0,41.816-3.588,41.816-8.007C91.946,83.451,90.479,73.958,85.259,66.226z M68.208,83.554  h-3.5v3.499h-3v-3.499h-3.5v-3h3.5v-3.501h3v3.501h3.5V83.554z"/><path d="M72.316,69.725c-0.546,1.189-0.025,2.595,1.165,3.141c1.19,0.545,2.596,0.023,3.142-1.167  c0.472-1.029,0.142-2.224-0.729-2.879c-0.132-0.101-0.278-0.188-0.438-0.261c-0.332-0.152-0.682-0.221-1.023-0.216  C73.549,68.357,72.709,68.869,72.316,69.725z"/></svg>
