<svg xmlns="http://www.w3.org/2000/svg" xmlns:xlink="http://www.w3.org/1999/xlink" version="1.1" x="0px" y="0px" viewBox="0 0 99.403 125.34875" enable-background="new 0 0 99.403 100.279" xml:space="preserve" fill="rgb(111, 188, 180)" ><g><path d="M47.985,21.874c-4.196,0-7.835,2.069-10.014,5.307c-2.183-3.199-5.85-5.307-10.017-5.307   c-6.7,0-12.135,5.433-12.135,12.135c0,3.374,1.23,6.5,3.454,8.701c0,0,2.884,3.082,8.459,7.011   c3.471,2.444,10.224,6.449,10.224,6.449s6.782-4.004,10.251-6.449c5.572-3.929,8.459-7.011,8.459-7.011   c2.221-2.201,3.454-5.327,3.454-8.701C60.121,27.307,54.688,21.874,47.985,21.874z"/><path d="M97.065,83.983c0,0-16.483-16.771-18.49-18.813c-2.006-2.042-4.229,0.773-7.634-0.066   c-2.168-0.534-3.295-1.949-3.829-2.907c5.475-6.577,8.77-15.03,8.77-24.256C75.882,16.987,58.896,0,37.941,0S0,16.987,0,37.941   s16.987,37.941,37.941,37.941c8.991,0,17.246-3.134,23.747-8.36c0.949,0.55,2.347,1.701,2.844,3.88   c0.78,3.419-2.072,5.593-0.065,7.634c2.007,2.042,18.49,18.814,18.49,18.814s4.843,5.103,9.51,0.516l2.476-2.433l2.474-2.432   C102.083,88.915,97.065,83.983,97.065,83.983z M37.882,68.71c-16.834,0-30.479-13.646-30.479-30.48   c0-16.833,13.646-30.48,30.479-30.48c16.833,0,30.48,13.647,30.48,30.48C68.362,55.064,54.715,68.71,37.882,68.71z"/></g></svg>
