<svg xmlns:rdf="http://www.w3.org/1999/02/22-rdf-syntax-ns#" xmlns="http://www.w3.org/2000/svg" xmlns:cc="http://creativecommons.org/ns#" xmlns:dc="http://purl.org/dc/elements/1.1/" version="1.1" x="0px" y="0px" viewBox="0 0 100 125" fill="rgb(111, 188, 180)" ><g transform="translate(0,-952.36218)"><path d="m9.2976,955.86a1.2501,1.2501,0,0,0,-1.125,1.25v90.5a1.2501,1.2501,0,0,0,1.25,1.25h63.781a1.2501,1.2501,0,0,0,1.25,-1.25v-18.312a1.2501,1.2501,0,1,0,-2.5,0v17.062h-61.281v-88h61.281v31.188a1.2501,1.2501,0,1,0,2.5,0v-32.438a1.2501,1.2501,0,0,0,-1.25,-1.25h-63.781a1.2501,1.2501,0,0,0,-0.125,0zm17.531,13.094,0,3,28.969,0,0-3-28.969,0zm-11.562,12,0,3,3.1875,0,0-3-3.1875,0zm8.0625,0,0,3,41,0,0-3-41,0zm-8.0625,10,0,3,3.1875,0,0-3-3.1875,0zm8.0625,0,0,3,41,0,0-3-41,0zm47.844,2.8438c-0.97441,0.004-1.9682,0.094-2.9375,0.28125-8.5236,1.6471-14.116,9.9452-12.469,18.469,1.6471,8.5237,9.9139,14.116,18.438,12.469,8.5236-1.6471,14.116-9.945,12.469-18.469a1.2501,1.2501,0,1,0,-2.4375,0.5c1.3908,7.1971-3.3029,14.109-10.5,15.5-7.1971,1.3908-14.109-3.3029-15.5-10.5-1.3907-7.197,3.2717-14.109,10.469-15.5,3.2621-0.63037,6.6412-0.0259,9.4688,1.7188a1.2501,1.2501,0,1,0,1.3125,-2.125c-2.5204-1.5551-5.3893-2.3558-8.3125-2.3438zm19.281,0.75a1.2501,1.2501,0,0,0,-0.75,0.3125l-20.531,17.813-3.9375-4.9375a1.2567,1.2567,0,1,0,-1.9688,1.5625l4.7812,5.9375a1.2501,1.2501,0,0,0,1.7812,0.1562l21.531-18.625a1.2501,1.2501,0,0,0,-0.90625,-2.2188zm-75.188,6.4062,0,3,3.1875,0,0-3-3.1875,0zm8.0625,0,0,3,31.094,0,0-3-31.094,0zm-8.0625,10,0,3,3.1875,0,0-3-3.1875,0zm8.0625,0,0,3,29.156,0,0-3-29.156,0zm-8.0625,10,0,3,3.1875,0,0-3-3.1875,0zm8.0625,0,0,3,33.75,0,0-3-33.75,0zm-8.0625,10,0,3,3.1875,0,0-3-3.1875,0zm8.0625,0,0,3,41,0,0-3-41,0z" style="direction:ltr;baseline-shift:baseline;block-progression:tb;text-indent:0;color:#000000;enable-background:accumulate;text-transform:none;"/></g></svg>
